# xmcd CD database file
#
# Track frame offsets:
#	183
#	9675
#	19510
#	29555
#	42750
#	54128
#	67363
#	79008
#	91018
#	101625
#	110790
#	123883
#
# Disc length: 1861 seconds
#
# Revision: 1
# Processed by: cddbd v1.4PL0 Copyright (c) Steve Scherf et al.
# Submitted via: CDex 1.40Beta9
#
DISCID=9307430c
DTITLE=The Gories - House Rockin'
DYEAR=1900
DGENRE=Blues
TTITLE0=Feral
TTITLE1=I Think I've Had It
TTITLE2=Charm Bag
TTITLE3=Boogie Chillun
TTITLE4=I'll Go
TTITLE5=Hidden Charms
TTITLE6=Sovereignity Flight
TTITLE7=You'll Be Mine
TTITLE8=You Done Got Wrong
TTITLE9=Sister Ann
TTITLE10=Give Me Love
TTITLE11=Let Me Hear The Choir Sing
EXTD=ID3G: 0
EXTT0=
EXTT1=
EXTT2=
EXTT3=
EXTT4=
EXTT5=
EXTT6=
EXTT7=
EXTT8=
EXTT9=
EXTT10=
EXTT11=
PLAYORDER=
